<?xml version="1.0" standalone="no"?>
<!DOCTYPE svg PUBLIC "-//W3C//DTD SVG 20010904//EN"
 "http://www.w3.org/TR/2001/REC-SVG-20010904/DTD/svg10.dtd">
<svg version="1.0" xmlns="http://www.w3.org/2000/svg"
 width="360.000000pt" height="360.000000pt" viewBox="0 0 360.000000 360.000000"
 preserveAspectRatio="xMidYMid meet">

<g transform="translate(0.000000,360.000000) scale(0.100000,-0.100000)"
fill="#000000" stroke="none">
<path d="M1603 3255 c0 -33 2 -45 4 -27 2 18 2 45 0 60 -2 15 -4 0 -4 -33z"/>
<path d="M943 3066 c-91 -29 -157 -88 -200 -181 l-28 -60 0 -1085 c0 -1038 1
-1087 19 -1139 26 -76 111 -161 189 -190 57 -21 67 -21 877 -21 802 0 820 0
874 21 77 28 146 94 182 171 l29 63 0 1090 0 1090 -26 56 c-36 76 -86 129
-156 165 -55 27 -66 29 -206 33 l-149 3 21 -38 c11 -22 22 -46 25 -55 3 -12
21 -17 70 -21 91 -8 166 -46 217 -110 73 -93 70 -39 67 -1144 l-3 -989 -27
-50 c-33 -63 -90 -118 -148 -144 -44 -20 -63 -21 -770 -21 l-725 0 -50 24
c-58 27 -118 89 -149 155 l-21 46 0 1000 0 1000 24 52 c26 59 103 137 157 159
20 8 63 17 97 21 l62 5 21 54 21 54 -126 -1 c-74 0 -143 -6 -168 -13z m1700
-60 c71 -19 88 -30 121 -82 22 -35 29 -60 33 -124 6 -77 5 -80 -15 -80 -22 0
-40 39 -28 59 4 5 1 13 -5 17 -8 4 -9 3 -5 -4 4 -7 5 -12 2 -12 -3 0 -15 18
-26 41 -42 82 -142 145 -251 157 -49 5 -65 11 -67 25 -3 15 6 17 92 17 52 0
119 -6 149 -14z"/>
<path d="M1194 2900 l1 -65 595 -2 c332 -1 582 2 565 7 -16 5 -275 10 -575 13
-300 2 -553 7 -562 11 -12 5 -18 23 -21 54 -3 31 -4 25 -3 -18z"/>
<path d="M1020 2450 c-12 -7 -16 -40 -18 -169 -4 -212 -15 -201 189 -201 84 0
159 5 170 10 18 10 19 23 19 178 0 117 -4 172 -12 180 -15 15 -325 17 -348 2z
m334 -42 c-2 -24 -6 -68 -10 -98 -5 -47 -8 -52 -18 -37 -7 9 -17 13 -21 9 -4
-4 0 7 10 23 11 18 -14 -2 -61 -47 -44 -43 -84 -78 -90 -78 -6 0 -33 23 -58
50 -39 42 -45 54 -36 65 17 20 22 19 60 -15 l34 -30 63 62 63 63 -36 12 c-20
7 -42 17 -48 22 -6 5 -29 13 -51 18 -40 8 -40 8 25 14 36 3 90 6 121 7 l55 2
-2 -42z"/>
<path d="M1523 2360 c3 -13 67 -15 493 -15 l489 0 -484 2 c-372 3 -487 6 -494
16 -6 9 -7 8 -4 -3z"/>
<path d="M1520 2166 c0 -2 8 -10 18 -17 15 -13 16 -12 3 4 -13 16 -21 21 -21
13z"/>
<path d="M1728 2143 c94 -2 250 -2 345 0 94 1 17 3 -173 3 -190 0 -267 -2
-172 -3z"/>
<path d="M2417 2143 c18 -2 50 -2 70 0 21 2 7 4 -32 4 -38 0 -55 -2 -38 -4z"/>
<path d="M1016 1868 c-13 -18 -16 -53 -16 -170 0 -198 -10 -188 193 -188 112
0 158 4 172 13 16 13 18 30 18 175 0 114 -4 166 -13 177 -10 12 -43 15 -176
15 -157 0 -163 -1 -178 -22z m337 -50 c-6 -73 -20 -154 -22 -120 -1 12 -6 22
-12 22 -5 0 -7 6 -3 13 8 13 -38 -27 -96 -85 -20 -21 -43 -38 -51 -38 -21 0
-108 91 -102 106 8 22 35 16 68 -16 l31 -30 64 66 c36 37 58 64 50 62 -8 -3
-19 5 -25 16 -8 16 -23 22 -59 26 -27 3 -51 10 -53 17 -4 12 18 15 148 21 l66
3 -4 -63z"/>
<path d="M1527 1779 c7 -7 15 -10 18 -7 3 3 -2 9 -12 12 -14 6 -15 5 -6 -5z"/>
<path d="M1568 1773 c7 -3 16 -2 19 1 4 3 -2 6 -13 5 -11 0 -14 -3 -6 -6z"/>
<path d="M2368 1763 c6 -2 18 -2 25 0 6 3 1 5 -13 5 -14 0 -19 -2 -12 -5z"/>
<path d="M1522 1590 c4 -13 71 -15 524 -15 l519 0 -509 2 c-387 3 -513 6 -524
16 -13 10 -14 9 -10 -3z"/>
<path d="M1016 1298 c-13 -18 -16 -52 -16 -168 0 -202 -12 -190 194 -190 131
0 166 3 176 15 15 19 14 333 -2 352 -8 10 -51 13 -174 13 -157 0 -163 -1 -178
-22z m330 2 c6 -6 7 -35 3 -78 -5 -37 -9 -76 -9 -87 -2 -17 -3 -16 -9 5 -5 14
-3 32 2 40 6 8 -27 -22 -74 -67 -46 -46 -89 -83 -94 -83 -17 0 -95 84 -95 102
0 33 29 32 64 -1 l32 -31 47 48 c26 27 44 52 40 57 -5 4 -3 5 4 1 14 -8 27 10
13 19 -6 4 -8 10 -5 15 6 11 -39 25 -70 22 -25 -2 -78 18 -70 27 4 3 48 8 98
12 51 3 97 6 103 7 5 1 15 -3 20 -8z"/>
<path d="M1520 1212 c0 -6 7 -13 16 -16 9 -3 244 -5 522 -4 l507 3 -510 5
c-280 3 -516 9 -522 13 -7 5 -13 4 -13 -1z"/>
<path d="M1522 1020 c4 -13 72 -15 529 -15 l524 0 -514 2 c-391 3 -518 6 -529
16 -13 10 -14 9 -10 -3z"/>
</g>
</svg>
